<svg width="24" height="24" viewBox="0 0 24 24" fill="none" xmlns="http://www.w3.org/2000/svg">
<path d="M18 9C18 7.4087 17.3679 5.88258 16.2426 4.75736C15.1174 3.63214 13.5913 3 12 3C10.4087 3 8.88258 3.63214 7.75736 4.75736C6.63214 5.88258 6 7.4087 6 9C6 16 4 17 4 17H20C20 17 18 16 18 9Z" stroke="black" stroke-width="1.5" stroke-linecap="round" stroke-linejoin="round"></path>
<path d="M13.73 20C13.5542 20.3031 13.3018 20.5547 12.9982 20.7295C12.6946 20.9044 12.3504 20.9965 12 20.9965C11.6496 20.9965 11.3054 20.9044 11.0018 20.7295C10.6982 20.5547 10.4458 20.3031 10.27 20" stroke="black" stroke-width="1.5" stroke-linecap="round" stroke-linejoin="round"></path>
</svg>
