<svg width="16" height="16" viewBox="0 0 16 16" fill="none" xmlns="http://www.w3.org/2000/svg">
<g opacity="0.25">
<path d="M12.5 7C12.5 10.5 8 13.5 8 13.5C8 13.5 3.5 10.5 3.5 7C3.5 5.80653 3.97411 4.66193 4.81802 3.81802C5.66193 2.97411 6.80653 2.5 8 2.5C9.19347 2.5 10.3381 2.97411 11.182 3.81802C12.0259 4.66193 12.5 5.80653 12.5 7Z" stroke="black" stroke-width="1.5" stroke-linecap="round" stroke-linejoin="round"></path>
<path d="M8 8.5C8.82843 8.5 9.5 7.82843 9.5 7C9.5 6.17157 8.82843 5.5 8 5.5C7.17157 5.5 6.5 6.17157 6.5 7C6.5 7.82843 7.17157 8.5 8 8.5Z" stroke="black" stroke-width="1.5" stroke-linecap="round" stroke-linejoin="round"></path>
</g>
</svg>
